:SAMPLES-PER-SECOND 30
:FULLY-SPECIFIED
:DEGREES
366
root  5.50708 36.1129 -62.2756 -168.193 1.87885 179.462
RightUpLeg  -44.88 -10.7811 8.95637
RightLeg  42.2051 12.3213 -4.40598
RightFoot  -10.9293 0.107254 -3.79124
RightToes  -1.16415e-010 -3.18055e-015 -2.98177e-016
Spine  26.4396 -3.25878 5.49236
Spine1  -11.1873 -2.66722 6.08702
HEad  -19.7066 3.24997 4.10731
LeftShoulder1  -3.88251e-019 9.70628e-020 -3.87848e-018
LeftArm  -18.8509 44.2891 -62.8456
LeftForeArm  7.14307 -19.5313 0.824159
LeftHand  -4.05341 -8.5524 33.9901
RightShoulder  5.81707 9.65243 28.3436
RightArm  11.2449 -45.6438 12.8687
RightForeArm  3.93889 27.6301 -15.0112
RightHand  -1.34317 1.96536 -20.7496
LeftUpLeg  -13.8979 5.55687 2.23836
LeftLeg  47.8121 -7.95444 7.67337
LeftFoot  -15.9101 -0.473624 -17.6268
LeftToes  1.69338e-011 3.79281e-011 -2.20049e-011
367
root  5.63044 36.8558 -62.8004 -169.185 2.84424 179.1
RightUpLeg  -40.3608 -10.5566 8.19895
RightLeg  37.6956 12.6277 -3.61923
RightFoot  -9.76452 0.141837 -3.79721
RightToes  -1.16415e-010 -3.18055e-015 -2.98177e-016
Spine  25.4956 -3.09779 5.2142
Spine1  -11.2247 -2.52003 5.59497
HEad  -18.4914 3.7955 3.61625
LeftShoulder1  -3.88251e-019 9.70628e-020 -3.87848e-018
LeftArm  -19.4451 46.5513 -61.6838
LeftForeArm  6.52698 -17.2177 -0.24587
LeftHand  -3.38315 -7.57137 30.7691
RightShoulder  5.74166 9.59488 28.041
RightArm  11.9912 -45.9608 12.4174
RightForeArm  2.54939 26.3382 -14.2528
RightHand  -1.19065 1.41795 -19.8652
LeftUpLeg  -13.9057 5.40851 1.91633
LeftLeg  48.5694 -7.12796 8.91563
LeftFoot  -6.64575 1.02872 -18.5752
LeftToes  1.69338e-011 3.79281e-011 -2.20049e-011
368
root  5.72768 37.4507 -63.2882 -170.257 3.55272 178.989
RightUpLeg  -36.1427 -10.4299 7.68867
RightLeg  33.702 12.9069 -3.04206
RightFoot  -8.75728 0.167771 -3.69704
RightToes  -1.16415e-010 -3.18055e-015 -2.98177e-016
Spine  24.4456 -3.07363 5.51331
Spine1  -10.8213 -2.40361 4.71147
HEad  -17.5688 4.34746 3.41443
LeftShoulder1  -3.88251e-019 9.70628e-020 -3.87848e-018
LeftArm  -19.5438 48.5007 -60.4709
LeftForeArm  5.68096 -15.8829 -0.529914
LeftHand  -2.66766 -6.30094 27.1761
RightShoulder  5.66841 9.52336 27.7766
RightArm  12.6147 -45.8394 12.4476
RightForeArm  1.34691 24.7697 -13.381
RightHand  -1.05954 0.943947 -18.9876
LeftUpLeg  -14.9257 5.03825 1.73496
LeftLeg  50.5881 -6.1578 10.8622
LeftFoot  2.30338 2.32296 -17.1242
LeftToes  1.69338e-011 3.79281e-011 -2.20049e-011
369
root  5.7909 37.832 -63.6956 -171.365 4.02728 179.249
RightUpLeg  -32.6087 -10.2853 7.55858
RightLeg  30.8127 13.0398 -2.74063
RightFoot  -8.1692 0.178596 -3.55847
RightToes  -1.16415e-010 -3.18055e-015 -2.98177e-016
Spine  23.5012 -3.17167 6.47349
Spine1  -10.2403 -2.28253 3.76172
HEad  -16.6065 4.56396 3.49652
LeftShoulder1  -3.88251e-019 9.70628e-020 -3.87848e-018
LeftArm  -19.3688 50.1649 -59.1771
LeftForeArm  3.99998 -15.5213 -0.504541
LeftHand  -2.11882 -5.18947 24.1009
RightShoulder  5.62274 9.49632 27.5747
RightArm  13.238 -45.3177 12.7591
RightForeArm  0.358634 23.1497 -12.5062
RightHand  -0.933434 0.493331 -17.9851
LeftUpLeg  -16.3939 4.56946 1.77844
LeftLeg  53.3377 -5.47109 12.9923
LeftFoot  8.01778 2.57162 -13.5813
LeftToes  1.69338e-011 3.79281e-011 -2.20049e-011
370
root  5.84116 38.0376 -64.0336 -172.615 4.31689 179.739
RightUpLeg  -29.5928 -10.0921 7.63278
RightLeg  29.0221 13.0096 -2.62643
RightFoot  -8.06469 0.176617 -3.45144
RightToes  -1.16415e-010 -3.18055e-015 -2.98177e-016
Spine  22.8728 -3.26904 7.6736
Spine1  -9.60265 -2.09167 2.98768
HEad  -15.6601 4.44531 3.77239
LeftShoulder1  -3.88251e-019 9.70628e-020 -3.87848e-018
LeftArm  -19.0518 51.4149 -57.9555
LeftForeArm  2.13685 -15.8062 -0.417266
LeftHand  -1.89128 -4.68453 22.6788
RightShoulder  5.61954 9.52125 27.506
RightArm  13.875 -44.4617 13.0459
RightForeArm  0.0538867 21.8482 -11.7399
RightHand  -0.803261 0.0769141 -16.6373
LeftUpLeg  -17.5266 4.2203 2.02158
LeftLeg  55.8311 -5.20062 14.7014
LeftFoot  8.12534 1.88007 -9.82175
LeftToes  1.69338e-011 3.79281e-011 -2.20049e-011
371
root  5.89681 38.1739 -64.3464 -173.885 4.33626 -179.811
RightUpLeg  -26.8171 -9.71707 7.48368
RightLeg  27.756 12.5072 -2.48452
RightFoot  -8.19643 0.170903 -3.40141
RightToes  -1.16415e-010 -3.18055e-015 -2.98177e-016
Spine  22.3454 -3.29791 8.64598
Spine1  -8.83011 -1.8781 2.32514
HEad  -15.1205 4.15017 4.17943
LeftShoulder1  -3.88251e-019 9.70628e-020 -3.87848e-018
LeftArm  -18.6007 52.1251 -56.955
LeftForeArm  1.49949 -16.4359 -0.246695
LeftHand  -1.93246 -4.8308 22.8049
RightShoulder  5.67759 9.56462 27.7439
RightArm  14.4843 -43.3195 13.0704
RightForeArm  0.853195 21.1976 -11.2552
RightHand  -0.714782 -0.0807752 -15.2503
LeftUpLeg  -18.3819 4.13796 2.30537
LeftLeg  57.026 -4.90483 15.9234
LeftFoot  3.9524 1.11513 -7.37036
LeftToes  1.69338e-011 3.79281e-011 -2.20049e-011
